<svg xmlns="http://www.w3.org/2000/svg" viewBox="0 0 260 64" fill="none" role="img" aria-label="WeThinkTech Global Limited">
  <!-- Gold arc segments — kept gold, readable on dark -->
  <g>
    <path d="M14 28 A16 16 0 0 1 46 28" stroke="#f5c518" stroke-width="3.5" stroke-linecap="round" fill="none"/>
    <path d="M17.5 33 A12 12 0 0 1 42.5 33" stroke="#e8a000" stroke-width="3" stroke-linecap="round" fill="none"/>
    <path d="M21 37.5 A9 9 0 0 1 39 37.5" stroke="#f5c518" stroke-width="2.5" stroke-linecap="round" fill="none"/>
  </g>

  <!-- Bulb body — white on dark bg -->
  <path d="M22 42 Q22 50 26 52 L26 55 Q26 57 30 57 Q34 57 34 55 L34 52 Q38 50 38 42 Q38 34 30 34 Q22 34 22 42Z" fill="rgba(255,255,255,0.90)"/>
  <!-- Bulb base bands -->
  <rect x="26" y="53" width="8" height="2" rx="1" fill="rgba(255,255,255,0.60)"/>
  <rect x="27" y="56" width="6" height="2" rx="1" fill="rgba(255,255,255,0.60)"/>

  <!-- Highlight -->
  <ellipse cx="27" cy="40" rx="2.5" ry="3.5" fill="rgba(255,255,255,0.35)" opacity="0.5"/>

  <!-- Wordmark — white -->
  <text x="56" y="30" font-family="Sora, system-ui, sans-serif" font-size="17" font-weight="700" letter-spacing="-0.5" fill="#ffffff">WeThinkTech</text>
  <!-- Sub-text — white/70 -->
  <text x="57" y="46" font-family="Inter, system-ui, sans-serif" font-size="10.5" font-weight="400" letter-spacing="0.5" fill="rgba(255,255,255,0.75)">GLOBAL LIMITED</text>
</svg>
